<?xml version="1.0" encoding="UTF-8" standalone="no"?>
<!DOCTYPE svg PUBLIC "-//W3C//DTD SVG 1.1//EN" "http://www.w3.org/Graphics/SVG/1.1/DTD/svg11.dtd">
<!-- Создано Microsoft Visio, экспорт SVG mixer_loop.svg Mixer -->
<svg xmlns="http://www.w3.org/2000/svg" xmlns:xlink="http://www.w3.org/1999/xlink" xmlns:ev="http://www.w3.org/2001/xml-events"
		width="4.33071in" height="4.72441in" viewBox="0 0 311.811 340.157" xml:space="preserve" color-interpolation-filters="sRGB"
		class="st14">
	<style type="text/css">
	<![CDATA[
		.st1 {fill:#eaeff5;stroke:#000000;stroke-linecap:round;stroke-linejoin:round;stroke-width:0.24}
		.st2 {fill:#000000;font-family:Calibri;font-size:1.5em}
		.st3 {marker-end:url(#mrkr13-9);stroke:#00b050;stroke-linecap:round;stroke-linejoin:round;stroke-width:1}
		.st4 {fill:#00b050;fill-opacity:1;stroke:#00b050;stroke-opacity:1;stroke-width:0.28409090909091}
		.st5 {fill:#000000;font-family:Calibri;font-size:1.00001em}
		.st6 {font-size:1em}
		.st7 {marker-end:url(#mrkr13-20);stroke:#c00000;stroke-linecap:round;stroke-linejoin:round;stroke-width:1}
		.st8 {fill:#c00000;fill-opacity:1;stroke:#c00000;stroke-opacity:1;stroke-width:0.28409090909091}
		.st9 {marker-end:url(#mrkr13-27);stroke:#3f3f3f;stroke-linecap:round;stroke-linejoin:round;stroke-width:1}
		.st10 {fill:#3f3f3f;fill-opacity:1;stroke:#3f3f3f;stroke-opacity:1;stroke-width:0.28409090909091}
		.st11 {stroke:#3f3f3f;stroke-linecap:round;stroke-linejoin:round;stroke-width:1}
		.st12 {fill:none;stroke:#a5a5a5;stroke-linecap:round;stroke-linejoin:round;stroke-width:0.24}
		.st13 {fill:#a5a5a5;font-family:Calibri;font-size:1.16666em}
		.st14 {fill:none;fill-rule:evenodd;font-size:12px;overflow:visible;stroke-linecap:square;stroke-miterlimit:3}
	]]>
	</style>

	<defs id="Markers">
		<g id="lend13">
			<path d="M 3 1 L 0 0 L 3 -1 L 3 1 " style="stroke:none"/>
		</g>
		<marker id="mrkr13-9" class="st4" refX="-10.56" orient="auto" markerUnits="strokeWidth" overflow="visible">
			<use xlink:href="#lend13" transform="scale(-3.52,-3.52) "/>
		</marker>
		<marker id="mrkr13-20" class="st8" refX="-10.56" orient="auto" markerUnits="strokeWidth" overflow="visible">
			<use xlink:href="#lend13" transform="scale(-3.52,-3.52) "/>
		</marker>
		<marker id="mrkr13-27" class="st10" refX="-10.56" orient="auto" markerUnits="strokeWidth" overflow="visible">
			<use xlink:href="#lend13" transform="scale(-3.52,-3.52) "/>
		</marker>
	</defs>
	<g>
		<title>Mixer loop</title>
		<g id="shape1-1" transform="translate(99.2126,-212.598)">
			<title>Скругленный прямоугольник.0</title>
			<desc>Mixer</desc>
			<path d="M106.3 340.16 A7.08667 7.08667 -180 0 0 113.39 333.07 L113.39 262.2 A7.08667 7.08667 -180 0 0 106.3 255.12 L7.09
						 255.12 A7.08667 7.08667 -180 0 0 0 262.2 L0 333.07 A7.08667 7.08667 -180 0 0 7.09 340.16 L106.3 340.16 Z"
					class="st1"/>
			<text x="35.42" y="303.04" class="st2">Mixer</text>		</g>
		<g id="shape2-4" transform="translate(297.638,425.197) rotate(180)">
			<title>Лист.2</title>
			<desc>opcodes</desc>
			<path d="M0 340.16 L74.48 340.16" class="st3"/>
			<text x="-50.83" y="-344.43" transform="rotate(180)" class="st5">opcodes</text>		</g>
		<g id="shape3-11" transform="translate(99.2126,-85.0394)">
			<title>Скругленный прямоугольник.3</title>
			<desc>Processing devices</desc>
			<path d="M106.3 340.16 A7.08667 7.08667 -180 0 0 113.39 333.07 L113.39 262.2 A7.08667 7.08667 -180 0 0 106.3 255.12 L7.09
						 255.12 A7.08667 7.08667 -180 0 0 0 262.2 L0 333.07 A7.08667 7.08667 -180 0 0 7.09 340.16 L106.3 340.16 Z"
					class="st1"/>
			<text x="17.81" y="292.24" class="st2">Processing <tspan x="29.55" dy="1.2em" class="st6">devices</tspan></text>		</g>
		<g id="shape4-15" transform="translate(496.063,127.559) rotate(90)">
			<title>Лист.4</title>
			<desc>instructions</desc>
			<path d="M0 340.16 L31.96 340.16" class="st7"/>
			<text x="-335.8" y="23.44" transform="rotate(-90)" class="st5">instructions</text>		</g>
		<g id="shape6-22" transform="translate(42.5197,-255.118)">
			<title>Лист.6</title>
			<desc>data</desc>
			<path d="M0 340.16 L46.13 340.16" class="st9"/>
			<text x="17.44" y="335.25" class="st5">data</text>		</g>
		<g id="shape8-29" transform="translate(496.063,255.118) rotate(90)">
			<title>Лист.8</title>
			<desc>result</desc>
			<path d="M0 340.16 L31.96 340.16" class="st9"/>
			<text x="-332.86" y="23.44" transform="rotate(-90)" class="st5">result</text>		</g>
		<g id="shape9-35" transform="translate(42.5197,-42.5197)">
			<title>Лист.9</title>
			<path d="M113.39 340.16 L0 340.16 L0 127.56" class="st11"/>
		</g>
		<g id="shape11-38" transform="translate(14.1732,-14.1732)">
			<title>Скругленный прямоугольник.8</title>
			<desc>Data processor</desc>
			<path d="M219.69 340.16 A7.08667 7.08667 -180 0 0 226.77 333.07 L226.77 35.43 A7.08667 7.08667 -180 0 0 219.69 28.35
						 L7.09 28.35 A7.08667 7.08667 -180 0 0 -0 35.43 L0 333.07 A7.08667 7.08667 -180 0 0 7.09 340.16 L219.69 340.16
						 Z" class="st12"/>
			<text x="4" y="40.95" class="st13">Data processor</text>		</g>
	</g>
</svg>
